<mxfile host="app.diagrams.net" agent="Mozilla/5.0 (Windows NT 10.0; Win64; x64) AppleWebKit/537.36 (KHTML, like Gecko) Chrome/129.0.0.0 Safari/537.36" version="24.7.17">
  <diagram name="Page-1" id="2Ekt9vHoiFazt9wzA4iN">
    <mxGraphModel dx="1050" dy="603" grid="1" gridSize="10" guides="1" tooltips="1" connect="1" arrows="1" fold="1" page="1" pageScale="1" pageWidth="850" pageHeight="1100" math="0" shadow="0">
      <root>
        <mxCell id="0" />
        <mxCell id="1" parent="0" />
        <object label="User" id="G-O0UTjPIuwUK3Z3C3g_-1">
          <mxCell style="shape=umlActor;verticalLabelPosition=bottom;verticalAlign=top;html=1;outlineConnect=0;" vertex="1" parent="1">
            <mxGeometry x="55" y="320" width="20" height="40" as="geometry" />
          </mxCell>
        </object>
        <mxCell id="G-O0UTjPIuwUK3Z3C3g_-8" value="&lt;font style=&quot;font-size: 20px;&quot;&gt;Use Case Simple Pict&lt;/font&gt;" style="text;html=1;align=center;verticalAlign=middle;whiteSpace=wrap;rounded=0;" vertex="1" parent="1">
          <mxGeometry x="295" width="260" height="80" as="geometry" />
        </mxCell>
        <mxCell id="G-O0UTjPIuwUK3Z3C3g_-9" value="" style="endArrow=classic;html=1;rounded=0;entryX=0;entryY=0.5;entryDx=0;entryDy=0;" edge="1" parent="1" target="G-O0UTjPIuwUK3Z3C3g_-11">
          <mxGeometry width="50" height="50" relative="1" as="geometry">
            <mxPoint x="85" y="340" as="sourcePoint" />
            <mxPoint x="205" y="300" as="targetPoint" />
          </mxGeometry>
        </mxCell>
        <mxCell id="G-O0UTjPIuwUK3Z3C3g_-10" value="" style="endArrow=classic;html=1;rounded=0;entryX=0;entryY=0.5;entryDx=0;entryDy=0;" edge="1" parent="1" target="G-O0UTjPIuwUK3Z3C3g_-12">
          <mxGeometry width="50" height="50" relative="1" as="geometry">
            <mxPoint x="85" y="340" as="sourcePoint" />
            <mxPoint x="205" y="380" as="targetPoint" />
          </mxGeometry>
        </mxCell>
        <mxCell id="G-O0UTjPIuwUK3Z3C3g_-11" value="Login" style="ellipse;whiteSpace=wrap;html=1;" vertex="1" parent="1">
          <mxGeometry x="375" y="230" width="110" height="70" as="geometry" />
        </mxCell>
        <mxCell id="G-O0UTjPIuwUK3Z3C3g_-12" value="Register" style="ellipse;whiteSpace=wrap;html=1;" vertex="1" parent="1">
          <mxGeometry x="375" y="350" width="110" height="70" as="geometry" />
        </mxCell>
        <object label="Admin" id="G-O0UTjPIuwUK3Z3C3g_-13">
          <mxCell style="shape=umlActor;verticalLabelPosition=bottom;verticalAlign=top;html=1;outlineConnect=0;" vertex="1" parent="1">
            <mxGeometry x="775" y="320" width="20" height="40" as="geometry" />
          </mxCell>
        </object>
        <mxCell id="G-O0UTjPIuwUK3Z3C3g_-17" value="Posting Gambar" style="ellipse;whiteSpace=wrap;html=1;" vertex="1" parent="1">
          <mxGeometry x="375" y="120" width="110" height="70" as="geometry" />
        </mxCell>
        <mxCell id="G-O0UTjPIuwUK3Z3C3g_-18" value="Edit Postingan" style="ellipse;whiteSpace=wrap;html=1;" vertex="1" parent="1">
          <mxGeometry x="265" y="750" width="110" height="70" as="geometry" />
        </mxCell>
        <mxCell id="G-O0UTjPIuwUK3Z3C3g_-22" value="Validasi data" style="ellipse;whiteSpace=wrap;html=1;" vertex="1" parent="1">
          <mxGeometry x="375" y="470" width="110" height="70" as="geometry" />
        </mxCell>
        <mxCell id="G-O0UTjPIuwUK3Z3C3g_-23" value="" style="endArrow=none;dashed=1;html=1;dashPattern=1 3;strokeWidth=2;rounded=0;exitX=0.5;exitY=0;exitDx=0;exitDy=0;entryX=0.5;entryY=1;entryDx=0;entryDy=0;" edge="1" parent="1" source="G-O0UTjPIuwUK3Z3C3g_-12" target="G-O0UTjPIuwUK3Z3C3g_-11">
          <mxGeometry width="50" height="50" relative="1" as="geometry">
            <mxPoint x="405" y="340" as="sourcePoint" />
            <mxPoint x="455" y="290" as="targetPoint" />
          </mxGeometry>
        </mxCell>
        <mxCell id="G-O0UTjPIuwUK3Z3C3g_-24" value="&amp;lt;&amp;lt;include&amp;gt;&amp;gt;" style="text;html=1;align=center;verticalAlign=middle;whiteSpace=wrap;rounded=0;" vertex="1" parent="1">
          <mxGeometry x="445" y="310" width="60" height="30" as="geometry" />
        </mxCell>
        <mxCell id="G-O0UTjPIuwUK3Z3C3g_-25" value="" style="endArrow=none;dashed=1;html=1;dashPattern=1 3;strokeWidth=2;rounded=0;exitX=0.5;exitY=0;exitDx=0;exitDy=0;entryX=0.5;entryY=1;entryDx=0;entryDy=0;" edge="1" parent="1" source="G-O0UTjPIuwUK3Z3C3g_-22" target="G-O0UTjPIuwUK3Z3C3g_-12">
          <mxGeometry width="50" height="50" relative="1" as="geometry">
            <mxPoint x="505" y="470" as="sourcePoint" />
            <mxPoint x="505" y="420" as="targetPoint" />
          </mxGeometry>
        </mxCell>
        <mxCell id="G-O0UTjPIuwUK3Z3C3g_-26" value="&amp;lt;&amp;lt;include&amp;gt;&amp;gt;" style="text;html=1;align=center;verticalAlign=middle;whiteSpace=wrap;rounded=0;" vertex="1" parent="1">
          <mxGeometry x="445" y="430" width="60" height="30" as="geometry" />
        </mxCell>
        <mxCell id="G-O0UTjPIuwUK3Z3C3g_-27" value="Simpan Gambar" style="ellipse;whiteSpace=wrap;html=1;" vertex="1" parent="1">
          <mxGeometry x="265" y="650" width="110" height="70" as="geometry" />
        </mxCell>
        <mxCell id="G-O0UTjPIuwUK3Z3C3g_-28" value="" style="endArrow=classic;html=1;rounded=0;entryX=0;entryY=0.5;entryDx=0;entryDy=0;" edge="1" parent="1" target="G-O0UTjPIuwUK3Z3C3g_-27">
          <mxGeometry width="50" height="50" relative="1" as="geometry">
            <mxPoint x="85" y="340" as="sourcePoint" />
            <mxPoint x="385" y="395" as="targetPoint" />
          </mxGeometry>
        </mxCell>
        <mxCell id="G-O0UTjPIuwUK3Z3C3g_-35" value="" style="endArrow=classic;html=1;rounded=0;entryX=1;entryY=0.5;entryDx=0;entryDy=0;" edge="1" parent="1" target="G-O0UTjPIuwUK3Z3C3g_-11">
          <mxGeometry width="50" height="50" relative="1" as="geometry">
            <mxPoint x="765" y="340" as="sourcePoint" />
            <mxPoint x="385" y="275" as="targetPoint" />
          </mxGeometry>
        </mxCell>
        <mxCell id="G-O0UTjPIuwUK3Z3C3g_-36" value="" style="endArrow=classic;html=1;rounded=0;entryX=1;entryY=0.5;entryDx=0;entryDy=0;" edge="1" parent="1" target="G-O0UTjPIuwUK3Z3C3g_-12">
          <mxGeometry width="50" height="50" relative="1" as="geometry">
            <mxPoint x="765" y="340" as="sourcePoint" />
            <mxPoint x="395" y="285" as="targetPoint" />
          </mxGeometry>
        </mxCell>
        <mxCell id="G-O0UTjPIuwUK3Z3C3g_-37" value="" style="endArrow=classic;html=1;rounded=0;entryX=0;entryY=0.5;entryDx=0;entryDy=0;" edge="1" parent="1" target="G-O0UTjPIuwUK3Z3C3g_-17">
          <mxGeometry width="50" height="50" relative="1" as="geometry">
            <mxPoint x="85" y="340" as="sourcePoint" />
            <mxPoint x="385" y="275" as="targetPoint" />
          </mxGeometry>
        </mxCell>
        <mxCell id="G-O0UTjPIuwUK3Z3C3g_-38" value="" style="endArrow=classic;html=1;rounded=0;entryX=0;entryY=0.5;entryDx=0;entryDy=0;" edge="1" parent="1" target="G-O0UTjPIuwUK3Z3C3g_-18">
          <mxGeometry width="50" height="50" relative="1" as="geometry">
            <mxPoint x="85" y="340" as="sourcePoint" />
            <mxPoint x="395" y="285" as="targetPoint" />
          </mxGeometry>
        </mxCell>
        <mxCell id="G-O0UTjPIuwUK3Z3C3g_-40" value="" style="endArrow=classic;html=1;rounded=0;entryX=1;entryY=0.5;entryDx=0;entryDy=0;" edge="1" parent="1" target="G-O0UTjPIuwUK3Z3C3g_-17">
          <mxGeometry width="50" height="50" relative="1" as="geometry">
            <mxPoint x="765" y="340" as="sourcePoint" />
            <mxPoint x="495" y="175" as="targetPoint" />
          </mxGeometry>
        </mxCell>
        <mxCell id="G-O0UTjPIuwUK3Z3C3g_-41" value="Menjelajahi Postingan" style="ellipse;whiteSpace=wrap;html=1;" vertex="1" parent="1">
          <mxGeometry x="265" y="550" width="110" height="70" as="geometry" />
        </mxCell>
        <mxCell id="G-O0UTjPIuwUK3Z3C3g_-42" value="" style="endArrow=classic;html=1;rounded=0;entryX=0;entryY=0.5;entryDx=0;entryDy=0;" edge="1" parent="1" target="G-O0UTjPIuwUK3Z3C3g_-41">
          <mxGeometry width="50" height="50" relative="1" as="geometry">
            <mxPoint x="85" y="340" as="sourcePoint" />
            <mxPoint x="385" y="715" as="targetPoint" />
          </mxGeometry>
        </mxCell>
        <mxCell id="G-O0UTjPIuwUK3Z3C3g_-44" value="Mengelola Konten &amp;amp; Pengguna" style="ellipse;whiteSpace=wrap;html=1;" vertex="1" parent="1">
          <mxGeometry x="485" y="550" width="110" height="70" as="geometry" />
        </mxCell>
        <mxCell id="G-O0UTjPIuwUK3Z3C3g_-45" value="" style="endArrow=classic;html=1;rounded=0;entryX=1;entryY=0.5;entryDx=0;entryDy=0;" edge="1" parent="1" target="G-O0UTjPIuwUK3Z3C3g_-44">
          <mxGeometry width="50" height="50" relative="1" as="geometry">
            <mxPoint x="765" y="340" as="sourcePoint" />
            <mxPoint x="275" y="595" as="targetPoint" />
          </mxGeometry>
        </mxCell>
      </root>
    </mxGraphModel>
  </diagram>
</mxfile>
